# xmcd
#
# Track frame offsets:
#	150
#	14402
#	28625
#	46550
#	57772
#	66351
#	84921
#	94620
#	110651
#	126681
#	139170
#	158719
#	165878
#	172765
#	204717
#	214915
#	225563
#	237869
#	252332
#	260253
#	272284
#	283542
#
# Disc length: 3891 seconds
#
# Revision: 1
# Processed by: cddbd v1.5.1PL0 Copyright (c) Steve Scherf et al.
# Submitted via: EasyCDDAExtractor 7.0.5.1
#
DISCID=250f3116
DTITLE=Vodopad - Countyr Music 1983 - 2003
DYEAR=2003
DGENRE=Country
TTITLE0=V nedelu napoludnie
TTITLE1=Detsky smiech
TTITLE2=Miesto v srdeci
TTITLE3=Na cestiach
TTITLE4=Par chvil
TTITLE5=Asi sa nezmenim
TTITLE6=Tico, tico
TTITLE7=Vanok lasky
TTITLE8=Mama
TTITLE9=Odchod klauna
TTITLE10=Rad bram
TTITLE11=Cucoriedky
TTITLE12=Falosny hrac
TTITLE13=V krajine snov
TTITLE14=Jarna
TTITLE15=Zivot bezi dalej
TTITLE16=Tulak vietor
TTITLE17=Valcik na rozlucku
TTITLE18=Zeleznicka
TTITLE19=Stara kara
TTITLE20=Studentskeblues
TTITLE21=Vodopad
EXTD=
EXTT0=
EXTT1=
EXTT2=
EXTT3=
EXTT4=
EXTT5=
EXTT6=
EXTT7=
EXTT8=
EXTT9=
EXTT10=
EXTT11=
EXTT12=
EXTT13=
EXTT14=
EXTT15=
EXTT16=
EXTT17=
EXTT18=
EXTT19=
EXTT20=
EXTT21=
PLAYORDER=
